<mxfile host="app.diagrams.net" modified="2024-09-13T09:06:18.939Z" agent="Mozilla/5.0 (Macintosh; Intel Mac OS X 10_15_7) AppleWebKit/537.36 (KHTML, like Gecko) Chrome/128.0.0.0 Safari/537.36" etag="-7Aey8l4Rp6czlcSd6rR" version="24.7.1" type="github">
  <diagram name="第 1 页" id="vcvGQQvWgvCkvQoSG0Wb">
    <mxGraphModel dx="954" dy="637" grid="1" gridSize="10" guides="1" tooltips="1" connect="1" arrows="1" fold="1" page="1" pageScale="1" pageWidth="1169" pageHeight="827" math="0" shadow="0">
      <root>
        <mxCell id="0" />
        <mxCell id="1" parent="0" />
        <mxCell id="uQnkR5oncuJnE6Joskx9-2" value="" style="ellipse;whiteSpace=wrap;html=1;aspect=fixed;" vertex="1" parent="1">
          <mxGeometry x="70" y="120" width="380" height="380" as="geometry" />
        </mxCell>
        <mxCell id="uQnkR5oncuJnE6Joskx9-3" value="" style="ellipse;whiteSpace=wrap;html=1;aspect=fixed;" vertex="1" parent="1">
          <mxGeometry x="280" y="310" width="120" height="120" as="geometry" />
        </mxCell>
        <mxCell id="uQnkR5oncuJnE6Joskx9-4" value="onerror&lt;div&gt;全局错误处理&lt;/div&gt;" style="ellipse;whiteSpace=wrap;html=1;" vertex="1" parent="1">
          <mxGeometry x="30" y="60" width="120" height="80" as="geometry" />
        </mxCell>
        <mxCell id="uQnkR5oncuJnE6Joskx9-5" value="&lt;p&gt;onunhandledrejection未处理的promise reject 错误处理&lt;/p&gt;" style="ellipse;whiteSpace=wrap;html=1;" vertex="1" parent="1">
          <mxGeometry x="180" y="20" width="120" height="80" as="geometry" />
        </mxCell>
      </root>
    </mxGraphModel>
  </diagram>
</mxfile>
